<?xml version="1.0" encoding="UTF-8"?>
<svg width="512px" height="512px" viewBox="0 0 512 512" version="1.1" xmlns="http://www.w3.org/2000/svg" xmlns:xlink="http://www.w3.org/1999/xlink">
    <g id="AltLogo-/-Black" stroke="none" stroke-width="1" fill="none" fill-rule="evenodd">
        <g id="Logo" transform="translate(131.000000, 75.000000)" fill="#000000">
            <path d="M49.564,246.6895 C47.969,241.6555 46.158,236.6785 44.824,231.5775 C41.705,219.6455 38.303,207.7525 35.989,195.6575 C34.007,185.2965 33.257,174.6885 32.2,164.1665 C31.639,158.5865 31.515,152.9575 31.316,147.3465 C30.893,135.3965 33.129,123.7295 35.2,112.0465 C40.133,84.2055 51.868,59.4365 69.127,37.1975 C77.913,25.8775 88.311,16.2645 100.221,8.2585 C113.65,-0.7695 127.71,-1.8955 142.519,4.3765 C153.4,8.9845 162.37,16.1995 170.406,24.6795 C191.196,46.6185 205.703,72.0995 212.948,101.4975 C217.016,118.0085 219.872,134.7735 219.451,151.8585 C219.248,160.0805 218.201,168.2885 217.377,176.4865 C216.099,189.2165 213.94,201.8075 210.603,214.1635 C208.035,223.6745 205.233,233.1235 202.453,242.5755 C202.052,243.9395 201.189,245.1675 200.54,246.4585 C200.317,246.3845 200.094,246.3105 199.871,246.2355 C200.363,243.5935 200.806,240.9415 201.356,238.3115 C205.885,216.6365 207.683,194.7585 206.43,172.6335 C205.35,153.5735 202.864,134.7605 196.97,116.5135 C190.827,97.4955 181.386,80.4005 166.998,66.3715 C162.391,61.8805 157.16,57.9875 151.973,54.1465 C149.179,52.0765 148.412,49.8375 148.858,46.4905 C150.302,35.6665 147.466,25.8425 140.665,17.3915 C136.463,12.1695 130.296,10.9865 123.9,11.1535 C112.453,11.4515 107.117,19.0525 103.5,28.5485 C101.307,34.3045 100.828,40.3255 101.46,46.3955 C101.84,50.0525 100.697,52.5735 97.6,54.6695 C78.667,67.4825 66.078,85.2995 57.363,106.1355 C49.017,126.0895 44.808,146.8905 44.475,168.4965 C44.36,175.9615 44.342,183.4295 44.137,190.8925 C43.643,208.8535 46.369,226.4275 50.295,243.8695 C50.489,244.7305 50.522,245.6285 50.629,246.5095 C50.274,246.5695 49.919,246.6295 49.564,246.6895" id="Fill-1"></path>
            <path d="M137.0452,348.3764 C144.2412,347.6374 151.4632,347.0954 158.6262,346.1174 C171.8112,344.3164 184.7122,341.3014 196.9392,335.8904 C205.1012,332.2784 212.7272,327.7794 219.2942,321.6414 C224.8652,316.4354 227.4662,309.9914 227.3412,302.4004 C227.3152,300.8534 227.3372,299.3054 227.3372,297.4424 C235.3752,301.4314 242.8202,305.7844 247.4702,313.5414 C251.8362,320.8254 249.1252,331.0464 241.7352,335.6044 C228.0512,344.0444 213.3792,350.2144 197.8382,354.2774 C178.9122,359.2254 159.6442,361.9244 140.0862,361.3804 C129.1712,361.0774 118.2742,359.7614 107.3952,358.6464 C89.6862,356.8314 72.4832,352.5664 55.4662,347.4794 C54.8672,347.3004 54.2662,347.1244 53.6802,346.7404 C73.8172,347.6304 93.9242,349.4704 114.7632,348.3274 C107.1682,343.5274 102.2312,337.4124 101.0052,328.8644 C99.7632,320.1974 103.1652,313.0594 109.1102,306.6004 C90.0372,308.1534 71.7152,310.9424 54.3062,318.0494 C45.7012,321.5624 37.5062,325.7844 31.0142,332.6454 C26.7202,337.1834 23.1022,342.1774 22.1442,348.5744 C21.9172,350.0944 22.0932,351.6794 22.1312,353.2324 C22.1592,354.4044 22.2632,355.5744 22.3332,356.7454 C22.1512,356.9014 21.9692,357.0564 21.7872,357.2114 C17.8102,354.6894 13.7272,352.3174 9.8882,349.6004 C6.1802,346.9774 3.3782,343.4934 1.6402,339.2204 C-1.3658,331.8314 1.3962,323.0424 8.2202,318.9124 C23.4502,309.6984 39.6822,302.9444 57.1292,299.2014 C60.5242,298.4734 63.8772,297.5514 67.2452,296.6984 C67.6672,296.5924 68.0582,296.3644 68.4642,296.1934 C68.4402,296.0034 68.4172,295.8124 68.3932,295.6224 C67.1692,295.6224 65.9442,295.5764 64.7232,295.6304 C60.1292,295.8334 55.6452,295.2494 51.3482,293.6124 C46.5182,291.7724 44.8042,288.3404 46.4382,283.4494 C47.2802,280.9254 48.6022,278.5624 49.9892,275.5074 C50.4992,276.5214 50.8652,276.9324 50.8932,277.3654 C50.9772,278.6404 50.9042,279.9254 50.9332,281.2054 C51.0492,286.3414 54.6202,289.8934 59.7392,289.8624 C65.6352,289.8254 71.5302,289.6154 77.4262,289.6274 C102.8962,289.6804 128.3662,289.7664 153.8352,289.8844 C164.0042,289.9304 174.1722,290.1294 184.3412,290.1604 C186.3822,290.1674 188.4622,289.9024 190.4592,289.4654 C196.4052,288.1654 198.7062,285.6364 199.7862,279.6344 C199.8972,279.0194 200.2772,278.4524 200.5322,277.8624 C200.9082,278.3764 201.4462,278.8394 201.6302,279.4144 C202.3422,281.6404 203.0392,283.8804 203.5592,286.1564 C204.3532,289.6384 202.8262,291.9204 199.4652,293.2644 C194.1832,295.3764 188.6722,295.5414 183.1302,295.5624 C173.8802,295.5984 164.6292,295.5634 155.3792,295.5844 C154.2282,295.5864 153.0772,295.7474 151.9262,295.8344 C151.9092,296.0294 151.8922,296.2254 151.8762,296.4204 C167.2142,300.1324 182.5522,303.8434 197.8902,307.5554 C197.8512,307.8604 197.8132,308.1654 197.7742,308.4714 C196.9912,308.5064 196.2032,308.6164 195.4252,308.5664 C185.4962,307.9344 175.5692,307.2774 165.6422,306.6314 C158.1952,306.1464 150.7492,305.6564 143.3002,305.2114 C142.6612,305.1734 142.0032,305.4604 141.3532,305.5964 C141.6722,306.1494 141.8862,306.8104 142.3262,307.2394 C154.0092,318.6284 152.5052,336.6114 139.0542,346.0644 C138.3212,346.5794 137.5752,347.0744 136.8352,347.5794 C136.9052,347.8454 136.9752,348.1104 137.0452,348.3764" id="Fill-3"></path>
            <path d="M118.2565,83.7607 C112.2055,85.6477 106.7275,88.4067 101.6635,91.9977 C89.4705,100.6447 82.0945,112.7627 77.0385,126.4887 C72.9855,137.4897 71.0535,148.9397 70.0985,160.5937 C69.1535,172.1147 69.3985,183.6077 70.6285,195.0827 C71.1115,199.5957 71.8985,204.0767 72.5115,208.5767 C72.6715,209.7497 72.6965,210.9417 72.7825,212.1257 C72.5935,212.1797 72.4035,212.2337 72.2145,212.2877 C71.7985,211.1707 71.2995,210.0767 70.9775,208.9327 C67.2595,195.7267 64.4805,182.3467 63.2195,168.6567 C61.6745,151.8807 62.6605,135.2917 66.7775,118.9547 C70.8275,102.8817 77.9115,88.2637 89.0685,75.8997 C93.3395,71.1667 98.2985,67.0457 103.0425,62.7557 C104.8835,61.0907 106.2655,61.4577 107.6295,63.8927 C110.0725,68.2557 113.9215,70.8937 118.6425,73.2927 C118.8515,71.7627 119.1305,70.4827 119.1865,69.1927 C119.6745,57.8317 120.1225,46.4677 120.5855,35.1057 C120.7225,31.7407 121.3975,31.1237 124.7135,31.2977 C128.9575,31.5197 128.8795,31.5237 129.0765,35.7497 C129.6265,47.5347 130.2435,59.3167 130.8465,71.0987 C130.8785,71.7167 131.0305,72.3287 131.1625,73.1747 C135.2095,71.3347 138.4765,68.8617 141.0865,65.4897 C144.6015,60.9497 144.6285,60.9917 149.2205,64.5667 C163.3845,75.5977 172.6655,90.0697 178.9875,106.6457 C186.1545,125.4387 188.2265,144.8937 186.8275,164.8587 C185.7245,180.5857 182.6205,195.9097 178.1465,210.9867 C177.9065,211.7977 177.4345,212.5407 176.5945,213.1317 C177.2845,208.3237 178.0465,203.5247 178.6495,198.7057 C180.3385,185.1967 180.8595,171.6627 179.5165,158.0807 C178.2105,144.8607 175.3715,132.0307 170.0975,119.7987 C164.0065,105.6677 154.4605,94.6907 140.6355,87.6287 C138.3615,86.4677 136.1485,85.1857 133.8975,83.9777 C132.1485,83.0387 131.5655,83.3287 131.6495,85.3167 C131.9035,91.2797 132.1685,97.2447 132.5975,103.1967 C133.0155,108.9957 132.0915,114.5177 129.6815,119.7897 C128.0705,123.3147 122.5825,123.8977 120.7245,120.4807 C119.2045,117.6837 117.7885,114.4287 117.6955,111.3357 C117.4645,103.6847 118.0245,96.0097 118.2505,88.3447 C118.2925,86.9307 118.2565,85.5137 118.2565,83.7607" id="Fill-5"></path>
            <path d="M95.0685,261.3625 C96.3825,263.5285 96.3825,263.5285 90.7285,267.0065 L134.1175,267.0065 C133.9005,266.8215 133.7765,266.6505 133.6115,266.5875 C128.1025,264.4645 126.0385,260.3525 126.5385,254.6345 C126.7115,252.6585 126.5415,250.6525 126.5215,248.6605 C126.4865,244.9855 127.4565,244.3025 131.2135,245.5155 C131.2135,249.2325 131.1235,253.0005 131.2365,256.7635 C131.3685,261.1415 134.3335,263.4885 139.3715,263.3995 C143.9345,263.3195 146.5475,260.8485 146.5815,256.5225 C146.6115,252.7525 146.5895,248.9815 146.5895,245.2105 C146.5895,245.0685 146.5885,244.9255 146.5885,244.7835 C146.5785,241.4555 147.5455,240.6705 151.2685,241.3135 C151.2685,245.7085 151.0865,250.1765 151.3165,254.6235 C151.5885,259.8885 150.1565,264.0115 144.9835,266.2085 C144.7005,266.3285 144.4965,266.6325 143.8235,267.2435 C145.0735,267.2435 145.8165,267.2445 146.5595,267.2435 C158.3005,267.2275 170.0415,267.1925 181.7825,267.2325 C182.6835,267.2355 183.9035,267.4905 184.4195,268.0985 C185.5855,269.4745 184.4705,271.3995 182.6065,271.4975 C181.9685,271.5315 181.3265,271.5065 180.6855,271.5065 C143.4695,271.5065 106.2535,271.5255 69.0375,271.4345 C67.6405,271.4315 66.2455,270.3605 64.7875,269.7615 C66.0055,267.5955 67.3735,267.0805 69.1845,267.1665 C71.8835,267.2935 74.5905,267.2405 77.2945,267.2345 C78.0355,267.2335 78.7755,267.1265 79.9755,267.0325 C77.9665,265.7515 76.3105,264.8675 74.8475,263.7345 C68.2855,258.6495 68.2465,248.7805 74.7125,243.5655 C80.1115,239.2105 87.7995,238.5685 93.9395,241.9605 C95.5655,242.8595 95.7835,243.5725 94.9885,245.8895 C93.1205,245.3885 91.2455,244.8175 89.3385,244.3865 C84.7055,243.3395 80.3325,243.7925 76.9675,247.4875 C74.3455,250.3675 73.8215,253.8675 75.5465,257.3925 C77.5805,261.5495 81.1465,263.7085 85.7235,263.3575 C88.8605,263.1175 91.9345,262.0615 95.0685,261.3625" id="Fill-7"></path>
            <path d="M68.411,223.1414 C76.168,225.0954 83.924,227.0494 91.681,229.0044 C101.716,231.5334 111.743,234.0944 121.795,236.5514 C123.051,236.8584 124.505,236.8834 125.76,236.5844 C143.893,232.2654 162.006,227.8674 180.128,223.5004 C180.94,223.3044 181.782,223.2304 182.61,223.1004 C182.847,223.3784 183.085,223.6564 183.323,223.9354 C182.628,224.3264 181.919,224.6944 181.242,225.1144 C175.451,228.7064 169.596,232.2034 163.911,235.9574 C161.431,237.5944 158.726,237.7084 156.014,238.0954 C146.389,239.4674 136.786,241.0864 127.119,242.0504 C122.456,242.5154 117.625,242.0504 112.945,241.4364 C105.425,240.4514 97.961,239.0344 90.491,237.6994 C89.136,237.4574 87.74,236.9374 86.581,236.2014 C81.005,232.6634 75.496,229.0194 69.987,225.3774 C69.26,224.8964 68.67,224.2114 68.016,223.6214 C68.148,223.4614 68.279,223.3014 68.411,223.1414" id="Fill-9"></path>
            <path d="M153.3189,203.9348 C153.7809,206.3798 154.0519,208.4408 154.5809,210.4338 C155.1079,212.4218 154.6229,213.6078 152.2769,215.0628 C149.6729,213.3408 149.5679,212.6298 150.2829,209.8018 C150.7349,208.0128 150.5769,206.0708 150.6989,204.0918 L140.1529,204.0918 C140.5309,207.0708 140.8919,209.9068 141.2519,212.7438 C141.4809,212.7398 141.7089,212.7358 141.9379,212.7318 C140.9989,213.9658 140.0589,215.2008 139.1279,216.4248 C135.8249,214.5488 135.5489,213.0888 136.9399,209.6818 C137.6169,208.0218 137.4359,206.0108 137.6679,203.9448 C134.1699,203.9448 131.1849,203.8598 128.2139,204.0168 C127.6239,204.0478 126.5969,205.0128 126.6029,205.5378 C126.6259,207.7148 126.4219,210.1518 127.3159,212.0028 C128.7539,214.9778 128.2749,217.1388 126.0809,219.2628 C125.7919,219.5428 125.5749,219.8968 125.3249,220.2148 C121.4299,217.1838 121.4359,216.4998 122.8779,212.1208 C123.6769,209.6948 123.5959,206.9788 123.9349,204.2008 L112.2839,204.2008 C113.2959,208.4078 115.4129,212.6888 112.0059,216.6888 C108.8239,215.1698 108.0669,213.0938 109.6189,209.8048 C111.3649,206.1058 110.0829,203.9978 106.0239,203.9428 C103.7499,203.9128 101.4759,203.9378 99.0809,203.9378 C98.9229,206.0018 98.7549,207.8398 100.0929,209.6428 C101.5519,211.6078 100.9229,213.0418 98.1079,215.2508 C94.6329,213.5838 94.2499,212.4498 96.0099,209.0398 C97.1679,206.7968 96.7229,205.2288 94.5719,203.9398 C94.0849,203.6478 93.3669,203.4298 93.1859,202.9978 C92.6659,201.7598 92.0119,200.3948 92.1309,199.1488 C92.1909,198.5158 93.7709,197.9688 94.7239,197.5068 C95.1379,197.3058 95.7019,197.3898 96.1989,197.3888 C116.1229,197.3848 136.0469,197.3798 155.9719,197.3908 C158.6979,197.3928 159.5559,198.3648 159.3809,201.0338 C159.2579,202.9138 158.2929,203.8878 156.4099,203.9318 C155.6369,203.9498 154.8639,203.9348 153.3189,203.9348" id="Fill-11"></path>
            <path d="M82.5478,215.4589 C83.9208,215.5869 84.7408,215.5639 85.5098,215.7499 C97.2138,218.5719 108.9158,221.4029 120.6078,224.2759 C124.7718,225.2999 128.7528,224.4139 132.7678,223.4199 C144.0418,220.6269 155.3298,217.8899 166.6148,215.1379 C166.7398,215.1069 166.8878,215.1739 167.4888,215.2669 C165.9178,216.6189 164.6278,217.8479 163.2188,218.9229 C154.9368,225.2449 145.3778,228.4709 135.2228,229.9229 C123.6258,231.5819 112.1498,230.8909 100.9878,227.0219 C94.8218,224.8839 89.2098,221.7719 84.3568,217.3669 C83.8578,216.9139 83.4238,216.3889 82.5478,215.4589" id="Fill-13"></path>
            <path d="M124.6977,158.24 C127.1077,158.24 129.5237,158.337 131.9277,158.215 C134.7107,158.073 135.3387,157.053 134.2097,154.517 C133.1197,152.067 131.7157,149.752 130.7037,147.273 C129.6407,144.668 127.5887,143.99 125.1337,143.845 C122.6667,143.7 120.6677,144.547 119.4727,146.811 C118.1207,149.372 116.7787,151.941 115.5317,154.554 C114.4107,156.904 115.0687,158.059 117.6807,158.211 C120.0127,158.347 122.3577,158.24 124.6977,158.24 Z M124.6707,165.319 C120.5527,165.319 116.4217,165.518 112.3187,165.263 C108.2647,165.01 106.7227,162.449 108.4287,158.79 C111.5427,152.108 114.8757,145.526 118.2207,138.954 C118.5767,138.255 119.5537,137.652 120.3577,137.438 C123.8147,136.518 127.2747,136.837 130.6167,138.007 C131.3957,138.28 132.2347,139.024 132.5887,139.769 C135.4757,145.848 138.3177,151.95 141.0387,158.105 C142.3487,161.067 141.7237,163.606 139.4457,164.57 C137.9897,165.187 136.2937,165.406 134.6917,165.468 C131.3567,165.599 128.0117,165.508 124.6717,165.508 L124.6707,165.319 Z" id="Fill-15"></path>
            <path d="M94.8298,280.6452 C95.2578,278.3242 94.1418,275.7342 97.0198,273.6562 C97.5008,275.2292 98.0588,276.5412 98.2868,277.9072 C98.7538,280.7002 99.2998,281.2782 102.1348,281.3272 C103.4858,281.3512 104.8378,281.3362 106.1898,281.3332 C109.3758,281.3272 109.3778,281.2202 109.4378,278.0952 C109.4658,276.6492 109.9718,275.2132 110.2608,273.7722 C110.6418,273.7202 111.0218,273.6672 111.4028,273.6152 C111.8828,274.7232 112.6348,275.7932 112.7938,276.9442 C113.3168,280.7342 113.8478,281.3692 117.5918,281.3212 C123.0528,281.2502 123.3758,282.4112 123.3268,275.7152 C123.3218,275.0962 123.4198,274.4772 123.4768,273.7622 L126.7348,273.7622 C126.7348,275.2772 126.7828,276.7912 126.7238,278.3022 C126.6278,280.7272 127.1148,281.1052 129.5098,280.9632 C131.9788,280.8162 134.4638,280.9302 137.2428,280.9302 C137.2428,279.4852 137.1168,278.2182 137.2808,276.9892 C137.4298,275.8682 137.8918,274.7892 138.2168,273.6912 C138.5378,273.6752 138.8598,273.6582 139.1818,273.6422 C139.4898,274.8932 140.0718,276.1492 140.0488,277.3942 C139.9958,280.3182 140.4438,280.8962 143.4058,280.8742 C146.0948,280.8542 148.7828,280.8702 151.5368,280.8702 C152.0598,278.4652 150.9818,275.7772 153.6888,273.7352 C154.0708,274.8152 154.5698,275.7112 154.6898,276.6552 C155.1798,280.5112 155.5038,280.8542 159.2988,280.8582 C161.4148,280.8602 163.5308,280.8592 165.6928,280.8592 C166.1588,278.3842 164.9958,275.7352 167.3118,273.8112 C169.2648,275.7652 168.6048,278.2512 168.7138,280.8372 C171.8678,280.8372 175.0428,280.9172 178.2108,280.8022 C179.7068,280.7482 179.9048,279.4972 179.7988,278.2752 C179.7198,277.3602 179.3868,276.4372 179.4728,275.5472 C179.5258,274.9932 180.1478,274.4942 180.5138,273.9702 C180.9228,274.3512 181.5638,274.6652 181.6988,275.1262 C182.1688,276.7362 182.4638,278.3972 182.8758,280.2672 C184.7358,281.4782 187.8278,280.3902 189.7678,282.2662 C189.6988,282.5082 189.6308,282.7502 189.5618,282.9932 L60.0908,282.9932 C60.9368,282.2092 61.3538,281.6442 61.9128,281.3572 C62.4588,281.0762 63.1468,281.0572 63.7778,280.9582 C67.3778,280.3972 67.3788,280.4012 67.3838,276.6802 C67.3848,275.8452 67.3838,275.0102 67.3838,273.6112 C70.8778,275.2652 69.5628,278.5402 71.0158,280.8412 C73.4208,280.8412 76.1098,280.9082 78.7948,280.8172 C80.4078,280.7622 81.0338,279.6272 81.2678,278.1302 C81.4808,276.7662 81.8608,275.4282 82.1668,274.0782 C82.4628,274.0502 82.7578,274.0232 83.0528,273.9952 C83.5778,276.1372 84.1018,278.2782 84.6818,280.6452 L94.8298,280.6452 Z" id="Fill-17"></path>
            <path d="M140.6517,108.547 C140.6517,110.85 140.6517,113.154 140.6517,115.457 C140.6517,119.223 140.6827,122.99 140.6237,126.755 C140.6127,127.468 140.4697,128.431 140.0027,128.841 C138.1417,130.478 136.1387,131.955 134.1627,133.458 C133.7187,133.795 133.1967,134.126 132.6647,134.238 C124.5247,135.949 116.7207,135.962 110.3237,129.502 C109.8147,128.988 109.2917,128.177 109.2977,127.51 C109.3567,121.485 109.5287,115.461 109.6827,109.437 C109.6887,109.192 109.8367,108.951 110.0517,108.316 C110.6557,109.402 111.1647,110.146 111.5047,110.961 C113.3637,115.403 115.2557,119.833 116.9797,124.328 C117.7937,126.451 119.0867,127.303 121.3397,127.162 C123.6747,127.015 126.0257,127.116 128.3697,127.142 C130.6057,127.166 132.1237,126.208 133.0007,124.108 C134.7747,119.861 136.6037,115.636 138.4517,111.421 C138.9127,110.372 139.5347,109.394 140.0827,108.383 C140.2717,108.438 140.4617,108.492 140.6517,108.547" id="Fill-19"></path>
            <path d="M125.0922,187.7758 C131.9172,187.7758 138.7412,187.7688 145.5662,187.7788 C148.2522,187.7828 148.7822,188.3818 148.7642,191.2908 C148.7482,193.8778 148.0672,194.5788 145.4832,194.5778 C131.8322,194.5718 118.1822,194.5598 104.5322,194.5388 C101.7432,194.5348 101.2582,194.0008 101.2712,191.1088 C101.2832,188.2678 101.7632,187.7808 104.6192,187.7778 C111.4432,187.7718 118.2682,187.7758 125.0922,187.7758" id="Fill-21"></path>
            <path d="M164.0524,247.9933 C164.2114,251.8083 164.7144,252.2073 168.5794,251.4493 C169.3994,251.2883 170.2504,251.0723 170.9754,250.6753 C172.7314,249.7143 173.4124,247.1013 171.9804,245.7823 C171.0104,244.8893 169.3814,244.5123 167.9884,244.3173 C164.4354,243.8183 163.9024,244.4013 164.0524,247.9933 Z M164.2194,262.6333 C170.6704,263.7843 172.5984,263.0013 174.9444,258.4933 C172.3694,254.0503 168.3534,254.5953 164.2194,255.1633 L164.2194,262.6333 Z M174.4774,252.6633 C175.2634,253.1423 175.8014,253.4703 176.3374,253.7993 C178.9194,255.3853 180.1374,257.5743 179.7354,259.9043 C179.1874,263.0743 177.1624,265.4973 174.1334,265.7973 C170.1134,266.1953 166.0484,266.2933 162.0094,266.2093 C161.2674,266.1933 159.9494,264.7123 159.9274,263.8813 C159.7504,256.9873 159.7954,250.0863 159.8224,243.1883 C159.8294,241.4963 160.7984,240.4863 162.5044,240.5463 C165.4784,240.6503 168.4974,240.6223 171.4084,241.1423 C176.9974,242.1413 178.6214,246.3663 175.4534,251.0553 C175.1464,251.5113 174.8814,251.9953 174.4774,252.6633 Z" id="Fill-23"></path>
            <path d="M123.7599,168.3513 C130.0069,168.3513 136.2529,168.3533 142.4999,168.3503 C144.2569,168.3493 145.7039,168.5693 145.8859,170.8723 C146.1449,174.1413 145.6229,174.6173 142.3049,174.6253 C131.3819,174.6523 120.4579,174.8113 109.5349,174.9203 C108.8249,174.9273 108.1149,174.9603 107.4049,174.9463 C104.5789,174.8923 103.4779,173.4163 104.0559,170.6503 C104.5669,168.2033 106.4619,168.3663 108.2159,168.3673 C112.8289,168.3713 117.4419,168.4543 122.0549,168.5033 C122.6239,168.5093 123.1919,168.5043 123.7599,168.5043 C123.7599,168.4533 123.7599,168.4023 123.7599,168.3513" id="Fill-25"></path>
            <path d="M103.5248,242.5436 C107.0358,242.7846 108.1908,243.9726 108.1978,247.1876 C108.2078,252.2166 108.1998,257.2456 108.1998,262.4986 C111.5838,262.4986 114.8328,262.5066 118.0818,262.4946 C119.5258,262.4896 121.0688,262.2566 121.0058,264.4916 C120.9468,266.6256 119.5858,266.4736 118.0398,266.4286 C114.3528,266.3226 110.6608,266.4146 106.9718,266.3456 C104.6868,266.3026 103.5718,265.3296 103.5498,263.1646 C103.4818,256.3456 103.5248,249.5256 103.5248,242.5436" id="Fill-27"></path>
            <path d="M104.7027,176.6081 C105.6077,177.3951 105.9927,177.7011 106.3447,178.0401 C109.1997,180.7891 109.5377,181.8951 105.8457,185.2431 C105.5907,185.4741 105.0677,185.6261 104.7487,185.5351 C102.0107,184.7581 100.9437,181.4911 102.6557,179.2161 C103.2917,178.3711 103.9607,177.5511 104.7027,176.6081" id="Fill-29"></path>
            <path d="M131.5423,185.5732 C127.0953,181.8762 127.0963,180.6002 131.4443,176.6882 C135.7763,179.8722 135.8203,181.8622 131.5423,185.5732" id="Fill-31"></path>
            <path d="M118.4875,185.6945 C113.8045,182.0535 113.8295,179.8425 118.4555,177.0525 C122.7675,180.4195 122.7855,181.7565 118.4875,185.6945" id="Fill-33"></path>
            <path d="M144.6949,176.5229 C149.0409,178.7089 149.1549,181.6729 145.0289,185.2089 C140.8849,182.5239 140.7809,179.8109 144.6949,176.5229" id="Fill-35"></path>
        </g>
    </g>
</svg>